<svg id="Calque_1" data-name="Calque 1" xmlns="http://www.w3.org/2000/svg" viewBox="0 0 128 128"><defs><style>.cls-1{fill:#323232;}.cls-2{fill:#fff;}</style></defs><title>Plan de travail 1</title><circle class="cls-1" cx="63.76" cy="64.47" r="64"/><path class="cls-2" d="M55.41,61.56s8.2-.61,8.2-10.22S56.9,37,48.4,37h-28V90.76h28s17.07.54,17.07-15.86C65.47,74.9,66.21,61.56,55.41,61.56Zm-22.64-15H48.4s3.8,0,3.8,5.59-2.24,6.4-4.77,6.4H32.76ZM47.68,81.21H32.76V66.85H48.4s5.66-.07,5.66,7.38C54.07,80.44,49.92,81.15,47.68,81.21Z"/><rect class="cls-2" x="76.67" y="40.2" width="22.17" height="6.62"/><path class="cls-2" d="M88.23,50.7c-20.66,0-20.64,20.64-20.64,20.64S66.17,91.88,88.23,91.88c0,0,18.38,1,18.38-14.29H97.16s.32,5.78-8.61,5.78c0,0-9.45.63-9.45-9.35h27.84S110,50.7,88.23,50.7Zm8.4,16.15H79s1.16-8.28,9.45-8.28S96.63,66.85,96.63,66.85Z"/></svg>