<svg id="Capa_1" data-name="Capa 1" xmlns="http://www.w3.org/2000/svg" viewBox="0 0 32 32"><defs><style>.cls-1{fill:#333;}.cls-2{fill:#fff;}</style></defs><title>linkedin_svg</title><path class="cls-1" d="M16,0A16,16,0,1,0,32,16,16,16,0,0,0,16,0Z"/><path id="LinkedIn" class="cls-2" d="M24.9,18V24.9H21.09V18.48c0-1.61-.55-2.72-1.93-2.72a2.1,2.1,0,0,0-2,1.46,2.85,2.85,0,0,0-.13,1V24.9H13.25s.05-10.89,0-12h3.82v1.7l0,0h0v0a3.77,3.77,0,0,1,3.44-2C23,12.61,24.9,14.32,24.9,18ZM9.26,7.1A2,2,0,0,0,7.1,9.17a2,2,0,0,0,2.11,2.08h0a2,2,0,0,0,2.16-2.08A2,2,0,0,0,9.26,7.1ZM7.32,24.9h3.82v-12H7.32Z"/></svg>